<svg width="141" height="44" viewBox="0 0 141 44" fill="none" xmlns="http://www.w3.org/2000/svg">
<g clip-path="url(#clip0_82_133)">
<path d="M10.277 8.71584H14.3818C15.2356 8.71584 16.0159 9.19555 16.3974 9.95423L26.0429 29.1399C26.3546 29.7604 26.3596 30.4894 26.0563 31.114L24.1673 35.0016C23.531 36.3114 21.6621 36.3349 20.9926 35.0414L8.69967 11.2842C8.09303 10.1113 8.94981 8.71584 10.277 8.71584Z" fill="#B2A100"/>
<path d="M24.2408 8.71584H28.3456C29.1995 8.71584 29.9798 9.19555 30.3613 9.95423L40.0066 29.1399C40.3185 29.7604 40.3234 30.4894 40.0201 31.114L38.1312 35.0016C37.4949 36.3114 35.626 36.3349 34.9564 35.0414L22.6638 11.2842C22.0568 10.1113 22.9136 8.71584 24.2408 8.71584Z" fill="#0000FF"/>
<path d="M47.4847 13.2685C47.4847 15.7831 45.4334 17.821 42.9029 17.821C40.3724 17.821 38.3212 15.7831 38.3212 13.2685C38.3212 10.7541 40.3724 8.71584 42.9029 8.71584C45.4334 8.71584 47.4847 10.7541 47.4847 13.2685Z" fill="#A500FF"/>
<path d="M56.4929 34.1625L55.5027 35.9133C55.4188 36.0618 55.1911 36.0024 55.1911 35.832V9.04701C55.1911 8.86407 55.3397 8.71584 55.5235 8.71584H56.2878C56.4716 8.71584 56.6209 8.86407 56.6209 9.04701V33.676C56.6209 33.8464 56.5769 34.014 56.4929 34.1625Z" fill="#232327"/>
<path d="M67.9032 32.5951L64.162 12.117C64.1533 12.0878 64.1495 12.0437 64.1495 11.9848C64.1495 11.8042 64.2203 11.6502 64.3621 11.5218C64.5032 11.3938 64.68 11.3294 64.8913 11.3294H67.574C67.806 11.3294 68.0155 11.4085 68.2017 11.5659C68.3879 11.7235 68.5058 11.9074 68.5566 12.117L70.6492 24.7504C70.6661 24.8006 70.6849 24.8346 70.7062 24.8512C70.7275 24.8679 70.7614 24.8765 70.8078 24.8765C70.8542 24.8765 70.8881 24.8679 70.9094 24.8512C70.9307 24.8346 70.9496 24.8006 70.9665 24.7504L72.6784 12.1802C72.7085 12.0287 72.7744 11.8873 72.8785 11.7548C72.9819 11.6226 73.1042 11.5186 73.2459 11.443C73.3877 11.3673 73.5262 11.3294 73.6617 11.3294H76.1663C76.3017 11.3294 76.439 11.3662 76.5783 11.44C76.7181 11.5134 76.8403 11.6109 76.9463 11.7327C77.0517 11.8545 77.1194 11.983 77.1495 12.117L79.2734 25.0025C79.286 25.0738 79.3261 25.1096 79.3939 25.1096C79.4233 25.1096 79.4515 25.1 79.4759 25.0815C79.5017 25.0622 79.5187 25.0363 79.5274 25.0025L81.271 12.1802C81.3179 11.941 81.4335 11.7393 81.62 11.5755C81.8056 11.4117 82.0166 11.3294 82.2536 11.3294H84.9364C85.0672 11.3294 85.1944 11.3646 85.3165 11.4335C85.4393 11.503 85.5354 11.5869 85.6055 11.6856C85.6756 11.7842 85.7052 11.8758 85.6973 11.9595L82.4321 32.3428C82.3851 32.6578 82.2681 32.9102 82.0795 33.0993C81.8916 33.2882 81.6698 33.3828 81.4169 33.3828H77.8468C77.6142 33.3828 77.4047 33.304 77.2191 33.1462C77.0329 32.9887 76.9144 32.8053 76.8636 32.5951L75.0249 22.4825L73.471 32.3428C73.4077 32.6578 73.281 32.9102 73.0904 33.0993C72.9004 33.2882 72.6784 33.3828 72.4251 33.3828H68.8864C68.7297 33.3828 68.5773 33.3457 68.4299 33.2724C68.2813 33.1991 68.1597 33.101 68.0619 32.9792C67.9647 32.8576 67.912 32.7295 67.9032 32.5951Z" fill="#232327"/>
<path d="M88.1915 32.5951V12.2118C88.1915 11.9722 88.2702 11.7705 88.427 11.6065C88.5831 11.443 88.7796 11.3609 89.0166 11.3609H91.362C91.4985 11.3609 91.6272 11.3991 91.75 11.4746C91.8721 11.5501 91.9704 11.6528 92.0448 11.7831C92.1178 11.9133 92.1546 12.0562 92.1546 12.2118V32.5951C92.1546 32.7505 92.1178 32.8933 92.0448 33.0235C91.9704 33.1538 91.8721 33.2566 91.75 33.332C91.6272 33.4078 91.4985 33.4457 91.362 33.4457H89.0166C88.7796 33.4457 88.5831 33.3636 88.427 33.2001C88.2702 33.0361 88.1915 32.8344 88.1915 32.5951Z" fill="#232327"/>
<path d="M95.3605 32.2673C95.3605 32.1794 95.3627 32.1101 95.3663 32.0594V32.0283L102.374 15.4563L102.405 15.3623C102.405 15.2152 102.321 15.1418 102.152 15.1418H96.4256C96.2608 15.1418 96.1069 15.0966 95.966 15.0061C95.8237 14.9159 95.7124 14.7971 95.63 14.6502C95.547 14.503 95.5065 14.352 95.5065 14.1964V12.2119C95.4978 12.0481 95.5347 11.899 95.6178 11.7647C95.6994 11.63 95.8121 11.524 95.9559 11.4463C96.1004 11.3683 96.2565 11.3294 96.4256 11.3294H107.542C107.766 11.3924 107.939 11.5166 108.059 11.7014C108.179 11.8864 108.239 12.1192 108.239 12.401C108.239 12.447 108.236 12.5035 108.227 12.571C108.214 12.6255 108.207 12.6844 108.207 12.7474L101.296 29.1294L101.264 29.2243C101.264 29.2873 101.29 29.345 101.343 29.3976C101.396 29.4502 101.454 29.4764 101.517 29.4764H107.941C108.483 29.4764 108.768 29.7911 108.798 30.4215L108.829 32.2802C108.829 32.4355 108.788 32.5917 108.706 32.7497C108.623 32.9069 108.513 33.0362 108.376 33.137C108.238 33.2381 108.094 33.2882 107.941 33.2882H95.9061C95.6944 33.1623 95.5513 33.0255 95.4747 32.8786C95.3988 32.7315 95.3605 32.5279 95.3605 32.2673Z" fill="#232327"/>
<path d="M111.04 32.626V12.0223C111.04 11.8713 111.077 11.7326 111.15 11.6065C111.225 11.4805 111.322 11.3818 111.445 11.3105C111.568 11.239 111.697 11.2033 111.832 11.2033H114.178C114.314 11.2033 114.443 11.239 114.565 11.3105C114.688 11.3818 114.786 11.4805 114.861 11.6065C114.934 11.7326 114.971 11.8713 114.971 12.0223V29.5076H119.727C119.964 29.5076 120.15 29.5749 120.285 29.7092C120.42 29.8435 120.488 30.0286 120.488 30.2637V32.626C120.488 32.8403 120.419 33.0202 120.282 33.1652C120.145 33.3101 119.959 33.3824 119.727 33.3824H111.8C111.665 33.3824 111.539 33.3477 111.423 33.2786C111.306 33.2093 111.214 33.1169 111.145 33.0011C111.074 32.8855 111.04 32.761 111.04 32.626Z" fill="#232327"/>
<path d="M123.856 32.6577V25.0338C123.797 24.5636 123.649 24.0592 123.412 23.5217L119.735 12.6211C119.671 12.4952 119.639 12.3586 119.639 12.2117C119.639 12.0433 119.686 11.8869 119.783 11.7418C119.877 11.5972 120.008 11.4819 120.175 11.3952C120.342 11.3094 120.523 11.2664 120.718 11.2664H122.683C123.147 11.2664 123.508 11.4868 123.761 11.9283L125.885 19.5517C125.928 19.5937 125.98 19.615 126.043 19.615C126.065 19.615 126.096 19.5937 126.139 19.5517L128.327 11.9283C128.389 11.7389 128.512 11.5813 128.694 11.4552C128.876 11.329 129.071 11.2664 129.277 11.2664H131.275C131.478 11.2664 131.663 11.3115 131.827 11.402C131.992 11.492 132.121 11.613 132.213 11.7643C132.307 11.9155 132.353 12.0752 132.353 12.2428C132.353 12.2932 132.345 12.3603 132.327 12.4445C132.311 12.5287 132.298 12.5873 132.29 12.6211L128.548 23.5217C128.358 24.0256 128.231 24.5296 128.168 25.0338V32.6577C128.168 32.813 128.121 32.9561 128.028 33.0864C127.936 33.2167 127.811 33.3195 127.655 33.3949C127.498 33.4705 127.331 33.5083 127.154 33.5083H124.839C124.67 33.5083 124.51 33.4705 124.36 33.3949C124.21 33.3195 124.088 33.2153 123.996 33.0831C123.902 32.9509 123.856 32.8092 123.856 32.6577Z" fill="#232327"/>
</g>
<defs>
<clipPath id="clip0_82_133">
<rect width="125" height="28" fill="white" transform="translate(8 8)"/>
</clipPath>
</defs>
</svg>
